<?xml version="1.0" encoding="iso-8859-1"?>
<!-- Generator: Adobe Illustrator 19.0.0, SVG Export Plug-In . SVG Version: 6.00 Build 0)  -->
<svg version="1.1" id="Layer_1" xmlns="http://www.w3.org/2000/svg" xmlns:xlink="http://www.w3.org/1999/xlink" x="0px" y="0px"
	 viewBox="0 0 512 512" style="enable-background:new 0 0 512 512;" xml:space="preserve">
<g>
	<path style="fill:#F6E27D;" d="M488.727,7.778H318.061c-7.249,0-14.083,3.378-18.486,9.135l-37.64,49.222l-51.54-51.541
		c-4.364-4.364-10.283-6.817-16.455-6.817H23.273C10.42,7.776,0,18.196,0,31.049v170.628c0,12.853,10.42,23.273,23.273,23.273
		h69.818v69.818c0,0.006,0.002,0.012,0.002,0.017c0,0.74,0.042,1.471,0.109,2.194c-0.067-0.717-0.11-1.44-0.11-2.171v186.143
		c0,12.853,10.42,23.273,23.273,23.273h139.652h139.621c12.853,0,23.273-10.42,23.273-23.273V294.769v-69.818h69.818
		c12.853,0,23.273-10.42,23.273-23.273V31.05C512,18.198,501.58,7.778,488.727,7.778z"/>
	<path style="fill:#F6E27D;" d="M395.636,318.04h-23.273h-78.713l29.721,59.429c1.673,3.345,2.465,6.901,2.462,10.403
		c-0.003,7.466-3.612,14.687-9.975,19.105c-0.909,0.632-1.876,1.206-2.894,1.714c-0.784,0.393-1.579,0.725-2.382,1.021
		c-0.262,0.098-0.527,0.169-0.791,0.256c-0.546,0.178-1.091,0.349-1.643,0.486c-0.313,0.078-0.627,0.138-0.942,0.203
		c-0.509,0.104-1.016,0.196-1.527,0.265c-0.329,0.045-0.656,0.081-0.985,0.112c-0.506,0.047-1.012,0.073-1.519,0.087
		c-0.202,0.006-0.403,0.034-0.604,0.034c-0.172,0-0.344-0.014-0.515-0.017c-0.183-0.005-0.366-0.011-0.549-0.019
		c-0.585-0.028-1.167-0.073-1.745-0.144c-0.092-0.011-0.182-0.016-0.273-0.028c-0.661-0.088-1.316-0.209-1.964-0.354
		c-0.163-0.036-0.324-0.079-0.487-0.119c-0.517-0.127-1.029-0.27-1.536-0.431c-0.155-0.05-0.309-0.093-0.462-0.146
		c-0.627-0.214-1.246-0.451-1.853-0.717c-0.101-0.045-0.2-0.096-0.301-0.143c-0.512-0.234-1.016-0.487-1.513-0.759
		c-0.161-0.088-0.321-0.177-0.479-0.268c-0.535-0.309-1.061-0.635-1.57-0.987c-0.045-0.031-0.092-0.057-0.137-0.088
		c-0.549-0.385-1.075-0.799-1.59-1.23c-0.138-0.116-0.272-0.236-0.406-0.354c-0.406-0.357-0.801-0.728-1.184-1.116
		c-0.11-0.112-0.227-0.22-0.335-0.335c-0.465-0.49-0.912-1.002-1.337-1.539c-0.09-0.112-0.171-0.23-0.258-0.344
		c-0.341-0.447-0.669-0.908-0.979-1.384c-0.105-0.161-0.213-0.324-0.315-0.49c-0.371-0.599-0.726-1.212-1.047-1.854l-2.453-4.906
		l-23.273-46.536l-0.02-0.039l-23.253,46.494v64.374v23.273c0,12.853,10.42,23.273,23.273,23.273h139.625
		c12.853,0,23.273-10.42,23.273-23.273V294.768C418.909,307.62,408.489,318.04,395.636,318.04z"/>
</g>
<g>
	<path style="fill:#DEDEE0;" d="M99.111,310.346c0.057,0.065,0.118,0.13,0.177,0.195c0.14,0.152,0.287,0.293,0.43,0.441
		c-0.362-0.372-0.714-0.759-1.05-1.154C98.814,310,98.959,310.179,99.111,310.346z"/>
	<path style="fill:#DEDEE0;" d="M116.292,318.037c0.025,0.002,0.048,0.003,0.071,0.003c0.011,0,0.02,0.002,0.031,0.002
		c-0.011,0-0.02-0.002-0.031-0.002c-0.698-0.002-1.387-0.043-2.068-0.104c0.009,0.002,0.019,0.002,0.028,0.003
		C114.973,317.995,115.631,318.034,116.292,318.037z"/>
	<path style="fill:#DEDEE0;" d="M96.061,283.46c0.284-0.51,0.586-1.007,0.908-1.493c-0.026,0.037-0.054,0.073-0.079,0.11
		c-0.079,0.121-0.15,0.244-0.225,0.366c-0.034,0.061-0.073,0.119-0.107,0.178C96.388,282.9,96.222,283.178,96.061,283.46z"/>
	<path style="fill:#DEDEE0;" d="M94.833,286.03c-0.02,0.048-0.04,0.093-0.061,0.141c-0.04,0.099-0.078,0.2-0.116,0.299
		c-0.022,0.056-0.039,0.113-0.061,0.169c-0.102,0.284-0.206,0.569-0.299,0.856c0.147-0.447,0.312-0.886,0.486-1.32
		C94.799,286.127,94.813,286.076,94.833,286.03z"/>
	<path style="fill:#DEDEE0;" d="M103.984,314.45L103.984,314.45c0.124,0.078,0.248,0.152,0.372,0.227
		c0.003,0.002,0.006,0.005,0.009,0.005c0.182,0.109,0.366,0.213,0.552,0.318c-0.417-0.237-0.828-0.484-1.229-0.746
		C103.79,314.318,103.883,314.387,103.984,314.45z"/>
	<path style="fill:#DEDEE0;" d="M102.611,313.512c0.016,0.011,0.029,0.022,0.042,0.033c0.064,0.048,0.127,0.096,0.191,0.143
		c0.003,0.002,0.005,0.003,0.006,0.005c0.095,0.065,0.191,0.126,0.285,0.189c-0.473-0.329-0.934-0.672-1.382-1.032
		C102.035,313.077,102.319,313.299,102.611,313.512z"/>
	<path style="fill:#DEDEE0;" d="M109.844,317.097c0.002,0.002,0.003,0.002,0.006,0.002c0.209,0.062,0.42,0.109,0.633,0.163
		c0.191,0.048,0.379,0.101,0.569,0.146c0.175,0.042,0.349,0.09,0.526,0.127c-0.624-0.132-1.237-0.293-1.842-0.473
		C109.774,317.074,109.81,317.088,109.844,317.097z"/>
	<path style="fill:#DEDEE0;" d="M107.801,316.383c0.098,0.039,0.194,0.079,0.292,0.116c0.214,0.082,0.428,0.161,0.645,0.236
		c0.093,0.033,0.185,0.061,0.279,0.092c-0.391-0.13-0.776-0.273-1.157-0.422C107.84,316.397,107.819,316.391,107.801,316.383z"/>
	<path style="fill:#DEDEE0;" d="M95.508,284.523c-0.012,0.023-0.023,0.047-0.033,0.07c-0.09,0.185-0.175,0.371-0.262,0.557
		c-0.022,0.05-0.042,0.099-0.065,0.149c0.178-0.4,0.369-0.793,0.569-1.181C95.646,284.253,95.575,284.387,95.508,284.523z"/>
	<path style="fill:#DEDEE0;" d="M113.672,317.868c-0.534-0.062-1.06-0.143-1.578-0.241c0.061,0.012,0.121,0.022,0.182,0.033
		c0.431,0.078,0.864,0.146,1.302,0.199C113.608,317.864,113.641,317.865,113.672,317.868z"/>
	<path style="fill:#DEDEE0;" d="M95.53,305.079c0.068,0.137,0.146,0.265,0.216,0.4c-0.195-0.375-0.375-0.757-0.549-1.143
		C95.308,304.584,95.409,304.834,95.53,305.079z"/>
</g>
<g>
	<path style="fill:#C3C3C7;" d="M93.092,294.786c0-0.005-0.002-0.011-0.002-0.017v0.039c0,0.731,0.043,1.454,0.11,2.171
		C93.134,296.256,93.092,295.526,93.092,294.786z"/>
	<path style="fill:#C3C3C7;" d="M107.801,316.383c-0.233-0.093-0.467-0.183-0.697-0.282c-0.028-0.011-0.051-0.026-0.078-0.037
		c-0.596-0.254-1.185-0.521-1.75-0.828c1.142,0.619,2.344,1.156,3.604,1.584c0.143,0.048,0.287,0.081,0.428,0.126
		c-0.194-0.062-0.379-0.143-0.573-0.209c-0.217-0.076-0.431-0.155-0.645-0.236C107.995,316.463,107.899,316.421,107.801,316.383z"/>
	<path style="fill:#C3C3C7;" d="M97.14,307.881c1.218,1.786,2.681,3.396,4.357,4.79c-0.787-0.655-1.514-1.376-2.209-2.127
		c-0.059-0.065-0.119-0.13-0.177-0.195C98.405,309.566,97.735,308.751,97.14,307.881z"/>
	<path style="fill:#C3C3C7;" d="M101.663,312.804c0.32,0.259,0.658,0.497,0.99,0.74c-0.014-0.011-0.028-0.022-0.042-0.033
		C102.293,313.279,101.969,313.054,101.663,312.804z"/>
	<path style="fill:#C3C3C7;" d="M111.52,317.528c-0.158-0.033-0.309-0.084-0.467-0.121c-0.191-0.045-0.379-0.099-0.569-0.146
		C110.829,317.353,111.172,317.454,111.52,317.528z"/>
	<path style="fill:#C3C3C7;" d="M116.364,318.04c-0.025,0-0.047-0.003-0.071-0.003c-0.661-0.002-1.319-0.04-1.97-0.099
		c-0.124-0.011-0.247-0.026-0.369-0.039c-0.095-0.009-0.186-0.019-0.279-0.029c-0.033-0.005-0.065-0.006-0.098-0.011
		c-0.438-0.053-0.87-0.121-1.302-0.199c-0.152-0.026-0.309-0.04-0.459-0.07c1.51,0.303,3.03,0.47,4.543,0.47
		c0.002,0,0.003,0,0.005,0c0.104,0,0.208-0.017,0.313-0.019h-0.281h-0.031V318.04z"/>
	<path style="fill:#C3C3C7;" d="M113.577,317.859c0.033,0.005,0.064,0.006,0.098,0.011c-0.002,0-0.003,0-0.003,0
		C113.641,317.865,113.608,317.864,113.577,317.859z"/>
</g>
<g>
	<path style="fill:#D6D5D8;" d="M114.295,317.935c-0.115-0.009-0.228-0.025-0.343-0.036c0.123,0.014,0.245,0.029,0.369,0.039
		C114.314,317.936,114.305,317.935,114.295,317.935z"/>
	<path style="fill:#D6D5D8;" d="M116.292,318.037c0.025,0,0.047,0.003,0.071,0.003h0.031c-0.011,0-0.02-0.002-0.031-0.002
		C116.34,318.04,116.317,318.037,116.292,318.037z"/>
</g>
<path style="fill:#F2D23D;" d="M23.273,224.95h69.818v69.818c0,0.006,0.002,0.012,0.002,0.017c0,0.74,0.042,1.471,0.109,2.194
	c-0.067-0.717-0.11-1.44-0.11-2.171v186.143c0,12.853,10.42,23.273,23.273,23.273h139.652c-12.853,0-23.273-10.42-23.273-23.273
	v-23.273v-64.374l-2.493,4.987c-5.75,11.495-19.728,16.154-31.226,10.404c-8.15-4.076-12.864-12.29-12.867-20.821
	c-0.003-3.502,0.79-7.058,2.462-10.403l29.722-59.429h-78.705h-22.959c-0.106,0.002-0.209,0.019-0.313,0.019
	c-0.002,0-0.003,0-0.005,0c-1.513,0-3.033-0.166-4.543-0.47c0.15,0.031,0.307,0.043,0.459,0.07c-0.061-0.011-0.121-0.02-0.182-0.033
	c-0.118-0.022-0.24-0.031-0.358-0.054c-0.002,0-0.003,0-0.005,0c-0.019-0.005-0.037-0.008-0.056-0.011
	c-0.002,0-0.003-0.002-0.006-0.002c-0.031-0.006-0.059-0.017-0.09-0.023c-0.177-0.037-0.351-0.087-0.526-0.127
	c0.158,0.037,0.309,0.087,0.467,0.121c-0.348-0.074-0.69-0.175-1.036-0.267c-0.213-0.056-0.427-0.102-0.639-0.164
	c-0.033-0.011-0.07-0.025-0.105-0.034c-0.081-0.025-0.163-0.039-0.242-0.062c-0.005-0.002-0.008-0.002-0.011-0.003
	c-0.005-0.002-0.009-0.003-0.014-0.005c-0.002,0-0.003-0.002-0.003-0.002c-0.155-0.048-0.299-0.115-0.451-0.164
	c-0.095-0.031-0.186-0.059-0.279-0.092c0.194,0.067,0.379,0.147,0.573,0.209c-0.143-0.045-0.287-0.078-0.428-0.126
	c-1.261-0.428-2.462-0.965-3.604-1.584c0.565,0.307,1.154,0.574,1.75,0.828c-0.541-0.237-1.072-0.489-1.592-0.766
	c-0.175-0.095-0.344-0.199-0.517-0.298c-0.186-0.105-0.371-0.208-0.552-0.318c-0.003-0.002-0.006-0.003-0.009-0.005
	c-0.071-0.043-0.143-0.087-0.213-0.129c-0.054-0.033-0.107-0.064-0.161-0.098l-0.003-0.002c-0.098-0.062-0.191-0.132-0.292-0.195
	c-0.186-0.121-0.371-0.244-0.554-0.371c-0.095-0.065-0.191-0.124-0.285-0.189c-0.067-0.048-0.13-0.098-0.197-0.147
	c-0.332-0.244-0.67-0.481-0.99-0.74c0.304,0.248,0.628,0.475,0.946,0.707c-0.292-0.214-0.576-0.436-0.858-0.663
	c-0.064-0.053-0.13-0.099-0.194-0.152c-0.51-0.42-0.999-0.872-1.472-1.336c-0.124-0.124-0.245-0.251-0.368-0.379
	c-0.144-0.147-0.292-0.289-0.43-0.441c0.695,0.751,1.423,1.472,2.209,2.127c-1.674-1.393-3.137-3.004-4.357-4.79
	c0.594,0.87,1.263,1.685,1.97,2.467c-0.152-0.168-0.295-0.346-0.442-0.52c-0.113-0.133-0.23-0.265-0.343-0.402
	c-0.41-0.506-0.804-1.027-1.173-1.57c-0.092-0.132-0.169-0.272-0.258-0.406c-0.27-0.414-0.528-0.836-0.771-1.269
	c-0.132-0.231-0.256-0.465-0.379-0.701c-0.07-0.135-0.147-0.264-0.216-0.4c-0.121-0.245-0.223-0.495-0.335-0.743
	c-0.104-0.231-0.216-0.458-0.312-0.694c-0.236-0.571-0.447-1.15-0.635-1.733c-0.078-0.236-0.14-0.476-0.208-0.715
	c-0.124-0.434-0.237-0.869-0.337-1.306c-0.053-0.233-0.105-0.465-0.152-0.701c-0.126-0.649-0.23-1.299-0.298-1.952
	c-0.014-0.119-0.017-0.241-0.028-0.36c-0.053-0.6-0.084-1.199-0.092-1.801c-0.002-0.102-0.016-0.202-0.016-0.306
	c0-0.081,0.011-0.16,0.012-0.24c0.008-0.689,0.036-1.376,0.104-2.062c0.012-0.129,0.034-0.254,0.05-0.382
	c0.064-0.546,0.147-1.089,0.248-1.629c0.019-0.104,0.029-0.211,0.047-0.315c0.002-0.006,0.002-0.012,0.003-0.019
	c0.005-0.017,0.009-0.036,0.012-0.053c0.003-0.012,0.006-0.026,0.009-0.04c0.02-0.101,0.053-0.195,0.076-0.296
	c0.109-0.495,0.236-0.987,0.379-1.475c0.026-0.088,0.042-0.178,0.07-0.265c0.011-0.036,0.022-0.071,0.031-0.107
	c0.012-0.037,0.022-0.076,0.033-0.113c0-0.003,0.003-0.006,0.003-0.009c0.029-0.09,0.067-0.175,0.098-0.265
	c0.093-0.287,0.197-0.573,0.299-0.856c0.022-0.056,0.039-0.113,0.061-0.169c0.039-0.099,0.076-0.2,0.116-0.299
	c0.02-0.048,0.04-0.093,0.061-0.141c0.04-0.101,0.07-0.206,0.112-0.306c0.002-0.005,0.005-0.011,0.006-0.016
	c0.023-0.053,0.048-0.102,0.074-0.154c0.04-0.084,0.084-0.168,0.121-0.254c0.045-0.098,0.084-0.199,0.129-0.296
	c0.064-0.138,0.13-0.273,0.199-0.41c0.006-0.014,0.012-0.026,0.019-0.04c0.006-0.009,0.011-0.02,0.016-0.031
	c0.067-0.137,0.14-0.27,0.209-0.405c0.042-0.081,0.079-0.163,0.118-0.245c0.025-0.056,0.05-0.112,0.079-0.164
	c0.008-0.014,0.017-0.028,0.025-0.042c0.011-0.017,0.022-0.036,0.033-0.053c0.022-0.036,0.043-0.07,0.062-0.107
	c0.118-0.213,0.248-0.42,0.372-0.631c0.087-0.144,0.175-0.287,0.261-0.43c0.073-0.121,0.143-0.24,0.219-0.358
	c0.002-0.003,0.003-0.005,0.006-0.008c0.009-0.012,0.016-0.028,0.025-0.04c0.036-0.053,0.071-0.105,0.105-0.158
	c0.106-0.158,0.222-0.307,0.329-0.462c0.13-0.185,0.259-0.368,0.393-0.551c0.006-0.006,0.009-0.014,0.016-0.02
	c0.028-0.039,0.054-0.079,0.082-0.118c0.014-0.019,0.026-0.039,0.039-0.057c0.012-0.016,0.022-0.031,0.033-0.047l0.019-0.023
	l0.551-0.721l17.884-23.387L245.752,87.298c0.012-0.016,0.025-0.033,0.036-0.048l1.885-2.464l14.262-18.651l-51.54-51.541
	c-4.364-4.364-10.283-6.817-16.455-6.817H23.273C10.42,7.776,0,18.196,0,31.049v170.628C0,214.53,10.42,224.95,23.273,224.95z"/>
<g>
	<path style="fill:#D6D5D8;" d="M97.877,280.672c-0.012,0.019-0.026,0.039-0.039,0.057c-0.028,0.039-0.054,0.079-0.082,0.118
		c0.028-0.036,0.051-0.076,0.079-0.112C97.849,280.714,97.862,280.692,97.877,280.672z"/>
	<path style="fill:#D6D5D8;" d="M97.448,281.285c0.101-0.138,0.194-0.281,0.295-0.417c-0.133,0.183-0.262,0.366-0.393,0.551
		c0.02-0.028,0.043-0.056,0.064-0.085C97.423,281.316,97.437,281.301,97.448,281.285z"/>
	<path style="fill:#D6D5D8;" d="M96.987,281.937c0.012-0.019,0.022-0.037,0.033-0.056c-0.034,0.053-0.07,0.105-0.106,0.158
		c-0.009,0.012-0.016,0.028-0.025,0.04c0.025-0.037,0.053-0.073,0.079-0.11C96.974,281.957,96.981,281.948,96.987,281.937z"/>
	<path style="fill:#D6D5D8;" d="M96.061,283.46c0.161-0.282,0.327-0.56,0.496-0.836c0.034-0.061,0.073-0.119,0.107-0.178
		c-0.085,0.143-0.174,0.285-0.261,0.43c-0.124,0.211-0.254,0.419-0.372,0.631c0.005-0.006,0.009-0.014,0.014-0.02
		C96.05,283.477,96.056,283.47,96.061,283.46z"/>
	<path style="fill:#D6D5D8;" d="M103.984,314.45c0.053,0.033,0.106,0.065,0.161,0.098c0.07,0.042,0.141,0.085,0.213,0.129
		C104.232,314.601,104.108,314.528,103.984,314.45L103.984,314.45z"/>
	<path style="fill:#D6D5D8;" d="M102.653,313.544c0.067,0.048,0.13,0.099,0.197,0.147c-0.002-0.002-0.003-0.003-0.006-0.005
		C102.78,313.64,102.717,313.592,102.653,313.544z"/>
	<path style="fill:#D6D5D8;" d="M109.844,317.097c0.213,0.062,0.427,0.109,0.639,0.164c-0.213-0.054-0.424-0.101-0.633-0.163
		C109.847,317.099,109.846,317.099,109.844,317.097z"/>
	<path style="fill:#D6D5D8;" d="M95.474,284.593c-0.068,0.137-0.135,0.272-0.199,0.41c-0.045,0.098-0.084,0.197-0.129,0.296
		c0.023-0.05,0.043-0.099,0.065-0.149C95.299,284.965,95.386,284.777,95.474,284.593z"/>
</g>
<path style="fill:#313133;" d="M395.636,271.495h-23.273H256.016H256h-0.011h-92.501h-29.297h-17.796c-0.005,0-0.008,0-0.012,0
	c-0.006,0-0.012,0.002-0.019,0.002c-0.78,0.002-1.544,0.057-2.304,0.135c-0.082,0.008-0.164,0.005-0.245,0.014h-0.002
	c-0.18,0.02-0.354,0.057-0.534,0.082c-0.686,0.092-1.365,0.206-2.032,0.357c-0.169,0.039-0.337,0.088-0.506,0.13
	c-0.68,0.171-1.35,0.368-2.006,0.596c-0.143,0.05-0.285,0.102-0.427,0.157c-0.684,0.254-1.353,0.538-2.006,0.853
	c-0.11,0.054-0.223,0.105-0.334,0.161c-0.703,0.354-1.385,0.739-2.045,1.159c-0.056,0.036-0.112,0.065-0.166,0.101
	c-0.721,0.465-1.415,0.973-2.084,1.517c-0.669,0.546-1.308,1.128-1.911,1.744c-0.118,0.121-0.227,0.253-0.341,0.375
	c-0.445,0.476-0.874,0.965-1.278,1.477c-0.24,0.303-0.472,0.613-0.695,0.928c-0.16,0.227-0.326,0.45-0.479,0.683
	c-0.321,0.486-0.624,0.982-0.908,1.493c-0.039,0.068-0.084,0.132-0.119,0.202c-0.009,0.016-0.019,0.029-0.028,0.045
	c-0.029,0.054-0.054,0.11-0.079,0.164c-0.039,0.082-0.076,0.166-0.118,0.245c-0.2,0.388-0.391,0.78-0.569,1.181
	c-0.037,0.087-0.081,0.171-0.121,0.254c-0.026,0.051-0.051,0.101-0.074,0.154c-0.002,0.005-0.005,0.011-0.006,0.016
	c-0.042,0.099-0.071,0.206-0.112,0.306c-0.02,0.048-0.034,0.098-0.053,0.146c-0.172,0.434-0.338,0.874-0.486,1.32
	c-0.031,0.09-0.067,0.175-0.098,0.265c0,0.003-0.003,0.006-0.003,0.009c-0.012,0.037-0.022,0.074-0.033,0.113
	c-0.009,0.036-0.02,0.071-0.031,0.107c-0.028,0.087-0.043,0.178-0.07,0.265c-0.143,0.489-0.27,0.981-0.379,1.475
	c-0.023,0.101-0.056,0.197-0.076,0.296c-0.003,0.014-0.006,0.028-0.009,0.04c-0.003,0.017-0.008,0.036-0.012,0.053
	c-0.002,0.006-0.002,0.012-0.003,0.019c-0.019,0.104-0.029,0.211-0.047,0.315c-0.101,0.541-0.185,1.083-0.248,1.629
	c-0.016,0.127-0.037,0.253-0.05,0.382c-0.068,0.684-0.098,1.373-0.104,2.062c-0.002,0.081-0.012,0.16-0.012,0.241
	c0,0.102,0.014,0.202,0.016,0.306c0.008,0.6,0.037,1.201,0.092,1.801c0.011,0.119,0.014,0.241,0.028,0.36
	c0.07,0.653,0.172,1.303,0.298,1.952c0.045,0.236,0.098,0.469,0.152,0.701c0.098,0.438,0.213,0.874,0.337,1.306
	c0.068,0.239,0.13,0.479,0.208,0.715c0.188,0.583,0.399,1.162,0.635,1.733c0.098,0.234,0.208,0.462,0.312,0.694
	c0.174,0.386,0.355,0.768,0.549,1.143c0.123,0.236,0.247,0.47,0.379,0.701c0.244,0.433,0.501,0.856,0.771,1.269
	c0.088,0.135,0.168,0.275,0.258,0.406c0.369,0.543,0.763,1.064,1.173,1.57c0.112,0.137,0.228,0.267,0.343,0.402
	c0.337,0.396,0.687,0.782,1.05,1.154c0.123,0.126,0.244,0.254,0.368,0.379c0.475,0.465,0.962,0.915,1.472,1.336
	c0.064,0.053,0.13,0.099,0.194,0.152c0.448,0.362,0.909,0.704,1.382,1.032c0.183,0.127,0.368,0.25,0.554,0.371
	c0.4,0.262,0.811,0.509,1.229,0.746c0.172,0.098,0.341,0.203,0.517,0.298c0.52,0.278,1.052,0.529,1.592,0.766
	c0.026,0.011,0.05,0.026,0.078,0.037c0.23,0.099,0.464,0.189,0.697,0.282c0.019,0.008,0.037,0.014,0.057,0.022
	c0.382,0.15,0.766,0.292,1.157,0.422c0.152,0.051,0.295,0.116,0.45,0.164c0.002,0,0.003,0,0.005,0.002
	c0.005,0.002,0.009,0.003,0.014,0.005c0.003,0.002,0.006,0.002,0.011,0.003c0.079,0.025,0.161,0.039,0.242,0.062
	c0.605,0.18,1.216,0.341,1.842,0.473c0.031,0.006,0.059,0.016,0.09,0.023c0.003,0,0.005,0.002,0.006,0.002
	c0.019,0.005,0.037,0.008,0.056,0.011c0.002,0,0.003,0,0.005,0c0.118,0.023,0.24,0.033,0.358,0.054
	c0.518,0.098,1.044,0.178,1.578,0.24c0.002,0,0.003,0,0.005,0c0.093,0.011,0.185,0.019,0.278,0.029
	c0.113,0.012,0.227,0.026,0.343,0.036c0.681,0.062,1.37,0.104,2.068,0.104c0.011,0,0.02,0.002,0.031,0.002h0.284h22.956h78.704
	l-29.722,59.429c-1.673,3.345-2.465,6.901-2.462,10.403c0.003,8.532,4.717,16.746,12.867,20.821
	c11.498,5.75,25.476,1.091,31.226-10.404l2.493-4.987l23.253-46.494l0.02,0.039l23.273,46.536l2.453,4.906
	c0.321,0.642,0.676,1.255,1.047,1.854c0.102,0.166,0.209,0.327,0.315,0.49c0.31,0.476,0.638,0.937,0.979,1.384
	c0.087,0.115,0.168,0.233,0.258,0.344c0.425,0.537,0.874,1.049,1.337,1.539c0.109,0.115,0.225,0.223,0.335,0.335
	c0.383,0.388,0.777,0.759,1.184,1.116c0.135,0.119,0.268,0.239,0.406,0.354c0.515,0.431,1.043,0.846,1.59,1.23
	c0.045,0.031,0.092,0.057,0.137,0.088c0.509,0.352,1.035,0.678,1.57,0.987c0.158,0.092,0.318,0.18,0.479,0.268
	c0.495,0.271,1.001,0.524,1.513,0.759c0.101,0.047,0.2,0.098,0.301,0.143c0.608,0.267,1.226,0.504,1.853,0.717
	c0.154,0.053,0.307,0.098,0.462,0.146c0.507,0.161,1.019,0.306,1.536,0.431c0.163,0.04,0.323,0.082,0.487,0.119
	c0.649,0.144,1.303,0.265,1.964,0.354c0.092,0.012,0.182,0.017,0.273,0.028c0.579,0.07,1.161,0.116,1.745,0.144
	c0.182,0.008,0.365,0.014,0.549,0.019c0.171,0.003,0.343,0.017,0.515,0.017c0.2,0,0.402-0.028,0.604-0.034
	c0.506-0.014,1.012-0.04,1.519-0.087c0.329-0.031,0.656-0.067,0.985-0.112c0.51-0.068,1.018-0.161,1.527-0.265
	c0.315-0.065,0.628-0.126,0.942-0.203c0.551-0.137,1.097-0.307,1.643-0.486c0.264-0.087,0.529-0.16,0.791-0.256
	c0.804-0.296,1.598-0.63,2.382-1.021c1.018-0.509,1.984-1.083,2.894-1.714c6.361-4.419,9.972-11.639,9.975-19.105
	c0.003-3.502-0.79-7.058-2.462-10.403l-29.721-59.429h78.71h23.273c12.853,0,23.273-10.42,23.273-23.273
	C418.909,281.915,408.489,271.495,395.636,271.495z"/>
<g>
	<path style="fill:#222224;" d="M114.06,271.632c-0.082,0.008-0.166,0.006-0.247,0.014h0.002
		C113.894,271.638,113.977,271.641,114.06,271.632z"/>
	<path style="fill:#222224;" d="M113.676,317.868c-0.002,0-0.003,0-0.005,0c-0.534-0.062-1.06-0.143-1.578-0.241
		c0.518,0.098,1.044,0.178,1.578,0.241C113.673,317.868,113.675,317.868,113.676,317.868z"/>
	<path style="fill:#222224;" d="M113.953,317.898c-0.093-0.011-0.185-0.019-0.278-0.029c-0.002,0-0.002,0-0.002,0
		C113.766,317.879,113.859,317.888,113.953,317.898z"/>
	<polygon style="fill:#222224;" points="113.675,317.868 113.676,317.868 113.672,317.868 	"/>
	<path style="fill:#222224;" d="M96.968,281.968c0.154-0.233,0.318-0.456,0.479-0.683c-0.011,0.016-0.025,0.031-0.034,0.048
		c-0.02,0.029-0.043,0.057-0.064,0.085c-0.107,0.155-0.222,0.304-0.329,0.462c-0.012,0.019-0.022,0.037-0.033,0.056
		C96.981,281.948,96.974,281.957,96.968,281.968z"/>
	<path style="fill:#222224;" d="M109.017,316.827c0.152,0.051,0.296,0.118,0.451,0.164c0,0,0.002,0.002,0.003,0.002
		c-0.002-0.002-0.003-0.002-0.005-0.002C109.312,316.944,109.168,316.878,109.017,316.827z"/>
	<path style="fill:#222224;" d="M96.061,283.46c-0.005,0.008-0.011,0.017-0.016,0.025c-0.005,0.006-0.009,0.014-0.014,0.02
		c-0.019,0.036-0.04,0.071-0.062,0.107c-0.011,0.017-0.022,0.036-0.033,0.053c-0.008,0.014-0.017,0.028-0.025,0.042
		c0.009-0.016,0.019-0.031,0.028-0.045C95.977,283.594,96.023,283.529,96.061,283.46z"/>
	<path style="fill:#222224;" d="M255.989,271.495h-92.501h-29.297h-17.796c-0.005,0-0.008,0-0.012,0c-0.006,0-0.012,0-0.019,0
		c-0.78,0.002-1.544,0.057-2.304,0.135c-0.082,0.008-0.164,0.005-0.245,0.014c0,0,0,0-0.002,0c-0.18,0.02-0.354,0.057-0.534,0.082
		c-0.686,0.092-1.365,0.206-2.032,0.357c-0.169,0.039-0.337,0.088-0.506,0.13c-0.68,0.171-1.35,0.368-2.006,0.596
		c-0.143,0.05-0.285,0.102-0.427,0.157c-0.684,0.254-1.353,0.538-2.006,0.853c-0.11,0.054-0.223,0.105-0.334,0.161
		c-0.703,0.354-1.385,0.739-2.045,1.159c-0.056,0.036-0.112,0.065-0.166,0.101c-0.721,0.465-1.415,0.973-2.084,1.517
		c-0.669,0.546-1.308,1.128-1.91,1.745c-0.118,0.121-0.227,0.253-0.341,0.375c-0.445,0.476-0.874,0.965-1.278,1.477
		c-0.24,0.303-0.472,0.614-0.695,0.928c-0.161,0.227-0.326,0.452-0.479,0.683c-0.321,0.486-0.624,0.982-0.908,1.493
		c-0.037,0.068-0.084,0.132-0.119,0.202c-0.009,0.016-0.019,0.029-0.028,0.045c-0.029,0.054-0.054,0.11-0.079,0.164
		c-0.039,0.082-0.076,0.164-0.118,0.245c-0.2,0.388-0.391,0.78-0.569,1.181c-0.037,0.087-0.081,0.171-0.121,0.254
		c-0.026,0.051-0.051,0.101-0.074,0.154c-0.002,0.005-0.005,0.011-0.006,0.016c-0.042,0.099-0.071,0.206-0.112,0.306
		c-0.02,0.048-0.034,0.098-0.053,0.146c-0.172,0.434-0.338,0.874-0.486,1.32c-0.031,0.09-0.067,0.175-0.098,0.265
		c0,0.003-0.003,0.006-0.003,0.009c-0.012,0.037-0.022,0.074-0.033,0.113c-0.009,0.036-0.02,0.071-0.031,0.107
		c-0.028,0.087-0.043,0.178-0.07,0.265c-0.143,0.489-0.27,0.981-0.379,1.475c-0.023,0.101-0.056,0.196-0.076,0.296
		c-0.003,0.014-0.006,0.028-0.009,0.04c-0.003,0.017-0.008,0.034-0.012,0.053c-0.002,0.006-0.002,0.012-0.003,0.019
		c-0.019,0.104-0.029,0.211-0.047,0.315c-0.101,0.541-0.185,1.083-0.248,1.629c-0.016,0.127-0.037,0.253-0.05,0.382
		c-0.068,0.684-0.098,1.373-0.104,2.062c-0.002,0.081-0.012,0.16-0.012,0.241c0,0.102,0.014,0.202,0.016,0.306
		c0.008,0.6,0.037,1.201,0.092,1.801c0.011,0.119,0.014,0.241,0.028,0.358c0.07,0.653,0.172,1.303,0.298,1.952
		c0.045,0.236,0.098,0.469,0.152,0.701c0.098,0.438,0.213,0.874,0.337,1.306c0.068,0.239,0.13,0.479,0.208,0.715
		c0.188,0.583,0.399,1.162,0.635,1.733c0.098,0.234,0.208,0.462,0.312,0.694c0.174,0.386,0.355,0.768,0.549,1.143
		c0.123,0.236,0.247,0.47,0.379,0.701c0.244,0.433,0.501,0.856,0.771,1.269c0.088,0.135,0.166,0.275,0.258,0.406
		c0.369,0.543,0.763,1.064,1.173,1.57c0.112,0.137,0.228,0.267,0.343,0.402c0.337,0.396,0.687,0.782,1.05,1.154
		c0.123,0.127,0.244,0.254,0.368,0.379c0.475,0.465,0.962,0.915,1.472,1.336c0.064,0.053,0.13,0.099,0.194,0.152
		c0.448,0.362,0.909,0.704,1.382,1.033c0.183,0.127,0.368,0.25,0.554,0.371c0.4,0.262,0.811,0.509,1.229,0.746
		c0.172,0.098,0.341,0.203,0.517,0.298c0.52,0.278,1.052,0.529,1.592,0.766c0.026,0.011,0.05,0.026,0.078,0.037
		c0.23,0.099,0.464,0.189,0.697,0.282c0.019,0.008,0.037,0.014,0.057,0.022c0.382,0.151,0.766,0.292,1.157,0.422
		c0.152,0.051,0.295,0.116,0.45,0.164c0.002,0,0.003,0,0.005,0.002c0.005,0.002,0.009,0.002,0.014,0.005
		c0.003,0,0.006,0.002,0.011,0.002c0.079,0.025,0.161,0.039,0.242,0.064c0.605,0.18,1.216,0.341,1.842,0.473
		c0.031,0.006,0.059,0.016,0.09,0.023c0.003,0,0.005,0.002,0.006,0.002c0.019,0.003,0.037,0.008,0.056,0.011
		c0.002,0,0.003,0,0.005,0c0.118,0.023,0.24,0.033,0.358,0.054c0.518,0.098,1.044,0.178,1.578,0.24c0.002,0,0.003,0,0.005,0
		c0.093,0.011,0.185,0.019,0.278,0.029c0.113,0.012,0.227,0.026,0.343,0.036c0.681,0.062,1.37,0.104,2.068,0.104
		c0.011,0,0.02,0.002,0.031,0.002h0.284h22.955h78.705l-29.722,59.429c-1.673,3.345-2.465,6.901-2.462,10.403
		c0.003,8.532,4.717,16.746,12.867,20.821c11.498,5.75,25.476,1.091,31.226-10.404l2.493-4.987l23.253-46.494l0.005,0.009v-75.321
		h-0.011V271.495z"/>
</g>
<g>
</g>
<g>
</g>
<g>
</g>
<g>
</g>
<g>
</g>
<g>
</g>
<g>
</g>
<g>
</g>
<g>
</g>
<g>
</g>
<g>
</g>
<g>
</g>
<g>
</g>
<g>
</g>
<g>
</g>
</svg>
