<?xml version="1.0" encoding="iso-8859-1"?>
<!-- Generator: Adobe Illustrator 19.0.0, SVG Export Plug-In . SVG Version: 6.00 Build 0)  -->
<svg version="1.1" id="Layer_1" xmlns="http://www.w3.org/2000/svg" xmlns:xlink="http://www.w3.org/1999/xlink" x="0px" y="0px"
	 viewBox="0 0 426 426" style="enable-background:new 0 0 426 426;" xml:space="preserve">
<g>
	<path style="fill:#37495E;" d="M125.153,275.577v-30.099L158.493,291h-17.916C132.072,291,125.153,284.081,125.153,275.577z
		 M268.153,275.577c0,8.504-6.919,15.423-15.424,15.423h-17.452l32.875-44.888L268.153,275.577L268.153,275.577z M329.08,158.11
		c-0.43-1.77-1.47-3.4-3.05-4.56c-3.56-2.62-8.57-1.84-11.18,1.72l-14.97,20.44l-82.57,112.74L209.96,267
		c6.06-4.14,10.04-11.11,10.04-19c0-12.7-10.3-23-23-23c-12.71,0-23,10.3-23,23c0,8.57,4.69,16.05,11.64,19.99L178.82,291h-0.5
		L94.08,175.97l-16.63-22.7c-2.61-3.56-7.61-4.34-11.18-1.72c-3.2,2.35-4.15,6.63-2.41,10.06c0.2,0.38,0.43,0.76,0.69,1.12
		l44.6,60.9v51.95c0,17.32,14.1,31.42,31.43,31.42H169v104.15c0,8.2,6.65,14.85,14.85,14.85h0.3c8.2,0,14.85-6.65,14.85-14.85
		c0,8.2,6.65,14.85,14.85,14.85h0.3c8.2,0,14.85-6.65,14.85-14.85V307h23.73c17.33,0,31.42-14.1,31.42-31.42v-51.31l43.61-59.54
		c0.72-0.99,1.18-2.08,1.39-3.2c0.06-0.24,0.1-0.48,0.12-0.72C329.22,159.91,329.16,159.01,329.08,158.11z"/>
	<path style="fill:#F8A805;" d="M329.31,161.53h-0.16c-15.01,0.2-16.37,12.18-29.27,14.18c-1.18,0.19-2.45,0.29-3.84,0.29
		c-16.74,0-16.74-14.47-33.47-14.47h-0.09c-16.64,0.06-16.67,14.47-33.37,14.47c-16.73,0-16.73-14.46-33.46-14.47
		c-8.37,0-12.55,3.62-16.73,7.23c-4.18,3.62-8.37,7.24-16.74,7.24c-16.69,0-16.72-14.41-33.35-14.47h-0.1
		c-16.74,0-16.74,14.47-33.46,14.47c-0.41,0-0.81-0.01-1.19-0.03c-14.87-0.64-15.89-13.25-30.22-14.36
		c-0.59-0.05-1.21-0.08-1.86-0.08c3.75-70.56,62.16-126.61,133.65-126.61c70.33,0,128,54.25,133.43,123.19
		c0.08,0.9,0.14,1.8,0.19,2.7C329.28,161.05,329.3,161.29,329.31,161.53z"/>
	<path style="fill:#37495E;" d="M262.473,161.53c-16.63,0.06-16.66,14.47-33.37,14.47c-16.38,0-16.71-13.88-32.45-14.45
		c-0.32-0.01-0.66-0.02-1-0.02h-0.01c-16.73,0-16.73,14.47-33.46,14.47c-16.69,0-16.73-14.41-33.35-14.47
		c1.87-70.56,31.07-126.61,66.82-126.61c0.33,0,0.67,0,1,0.02C231.943,35.97,260.623,91.63,262.473,161.53z"/>
	<path style="fill:#3E81C8;" d="M119,373c0,1.01-0.05,2.01-0.14,3H4.75C2.35,371.18,1,365.75,1,360c0-19.88,16.12-36,36-36
		c14.84,0,27.59,8.99,33.1,21.82C75,342.76,80.8,341,87,341C104.67,341,119,355.33,119,373z"/>
	<path style="fill:#3E81C8;" d="M425,49c0,1.01-0.05,2.01-0.14,3H310.75c-2.4-4.82-3.75-10.25-3.75-16c0-19.88,16.12-36,36-36
		c14.84,0,27.59,8.99,33.1,21.82C381,18.76,386.8,17,393,17C410.67,17,425,31.33,425,49z"/>
	<path style="fill:#3E81C8;" d="M262.473,161.53c-16.63,0.06-16.66,14.47-33.37,14.47c-16.38,0-16.71-13.88-32.45-14.45V34.94
		C231.943,35.97,260.623,91.63,262.473,161.53z"/>
</g>
<g>
</g>
<g>
</g>
<g>
</g>
<g>
</g>
<g>
</g>
<g>
</g>
<g>
</g>
<g>
</g>
<g>
</g>
<g>
</g>
<g>
</g>
<g>
</g>
<g>
</g>
<g>
</g>
<g>
</g>
</svg>
