<?xml version="1.0" encoding="iso-8859-1"?>
<!-- Generator: Adobe Illustrator 19.0.0, SVG Export Plug-In . SVG Version: 6.00 Build 0)  -->
<svg version="1.1" id="Layer_1" xmlns="http://www.w3.org/2000/svg" xmlns:xlink="http://www.w3.org/1999/xlink" x="0px" y="0px"
	 viewBox="0 0 513.067 513.067" style="enable-background:new 0 0 513.067 513.067;" xml:space="preserve">
<g>
	
		<ellipse transform="matrix(-0.2138 -0.9769 0.9769 -0.2138 14.3019 498.9391)" style="fill:#F8B64C;" cx="207.927" cy="243.714" rx="16" ry="8.534"/>
	
		<ellipse transform="matrix(-0.2138 0.9769 -0.9769 -0.2138 608.6971 -1.0686)" style="fill:#F8B64C;" cx="304.779" cy="244.409" rx="16" ry="8.534"/>
</g>
<path style="fill:#ACB3BA;" d="M503.467,102.933H8.533C3.2,102.933,0,99.733,0,95.467l0,0c0-4.267,3.2-8.533,8.533-8.533h496
	c4.267,0,8.533,3.2,8.533,8.533l0,0C512,99.733,508.8,102.933,503.467,102.933z"/>
<rect x="225.067" y="287.467" style="fill:#F8B64C;" width="61.867" height="82.133"/>
<path style="fill:#FFD15C;" d="M178.133,390.933c0,0,28.8-24.533,32-82.133c0,0-11.733-17.067-24.533-18.133
	c0,0-5.333-32-44.8-56.533c0,0-13.867-66.133-37.333-103.467H80c0,0,12.8,102.4,24.533,118.4c0,0,24.533,46.933,29.867,59.733
	c0,0,12.8,23.467,24.533,27.733C158.933,335.467,166.4,370.667,178.133,390.933z"/>
<path style="fill:#F8B64C;" d="M81.067,134.933c0,0-16-7.467-14.933-28.8h50.133l-11.733,27.733L81.067,134.933z"/>
<path style="fill:#FFD15C;" d="M109.867,79.467c-4.267,0-6.4,3.2-6.4,6.4c0-3.2-3.2-6.4-6.4-6.4s-6.4,3.2-6.4,6.4
	c0-3.2-3.2-6.4-6.4-6.4c-2.133,0-5.333,3.2-5.333,6.4c0-3.2-3.2-6.4-6.4-6.4s-5.333,3.2-5.333,6.4V107.2c0,3.2,3.2,6.4,6.4,6.4
	s6.4-3.2,6.4-6.4c0,3.2,3.2,6.4,6.4,6.4c3.2,0,6.4-3.2,6.4-6.4c0,3.2,3.2,6.4,6.4,6.4c3.2,0,6.4-3.2,6.4-6.4c0,3.2,3.2,6.4,6.4,6.4
	s6.4-3.2,6.4-6.4V85.867C115.2,82.667,113.067,79.467,109.867,79.467z"/>
<path style="fill:#F4AE4A;" d="M100.267,117.867l8.533-4.267c0,0-13.867-9.6-11.733-14.933c1.067-3.2,2.133-3.2,13.867,0l0,0
	c9.6,2.133,13.867,11.733,8.533,20.267c-4.267,6.4-9.6,13.867-14.933,16c0,0-11.733,1.067-9.6-7.467
	C94.933,122.133,98.133,118.933,100.267,117.867z"/>
<path style="fill:#FFD15C;" d="M333.867,390.933c0,0-28.8-24.533-32-82.133c0,0,11.733-17.067,24.533-18.133
	c0,0,5.333-32,44.8-56.533c0,0,13.867-66.133,37.333-103.467h22.4c0,0-12.8,102.4-24.533,118.4c0,0-24.533,46.933-29.867,59.733
	c0,0-12.8,23.467-24.533,27.733C353.067,335.467,345.6,370.667,333.867,390.933z"/>
<path style="fill:#F8B64C;" d="M429.867,134.933c0,0,16-7.467,14.933-28.8h-50.133l11.733,27.733L429.867,134.933z"/>
<path style="fill:#FFD15C;" d="M402.133,79.467c3.2,0,6.4,3.2,6.4,6.4c0-3.2,3.2-6.4,6.4-6.4s6.4,3.2,6.4,6.4c0-3.2,3.2-6.4,6.4-6.4
	c3.2,0,6.4,3.2,6.4,6.4c0-3.2,3.2-6.4,6.4-6.4c3.2,0,6.4,3.2,6.4,6.4V107.2c0,3.2-3.2,6.4-6.4,6.4c-3.2,0-6.4-3.2-6.4-6.4
	c0,3.2-3.2,6.4-6.4,6.4c-3.2,0-6.4-3.2-6.4-6.4c0,3.2-3.2,6.4-6.4,6.4s-6.4-3.2-6.4-6.4c0,3.2-3.2,6.4-6.4,6.4
	c-3.2,0-6.4-3.2-6.4-6.4V85.867C396.8,82.667,398.933,79.467,402.133,79.467z"/>
<path style="fill:#F4AE4A;" d="M411.733,117.867L403.2,113.6c0,0,13.867-9.6,11.733-14.933c-1.067-3.2-2.133-3.2-13.867,0l0,0
	c-9.6,2.133-13.867,11.733-8.533,20.267c4.267,6.4,9.6,13.867,14.933,16c0,0,11.733,1.067,9.6-7.467
	C416,122.133,413.867,118.933,411.733,117.867z"/>
<path style="fill:#334A5E;" d="M461.867,154.133L461.867,154.133c7.467,0,13.867-6.4,13.867-13.867V49.6
	c0-7.467-6.4-13.867-13.867-13.867l0,0C454.4,35.733,448,42.133,448,49.6v90.667C448,147.733,454.4,154.133,461.867,154.133z"/>
<path style="fill:#40596B;" d="M488.533,143.467L488.533,143.467c7.467,0,13.867-6.4,13.867-13.867V60.267
	c0-7.467-6.4-13.867-13.867-13.867l0,0c-7.467,0-13.867,6.4-13.867,13.867v70.4C475.733,137.067,481.067,143.467,488.533,143.467z"
	/>
<path style="fill:#334A5E;" d="M50.133,154.133L50.133,154.133c-7.467,0-13.867-6.4-13.867-13.867V49.6
	c0-7.467,6.4-13.867,13.867-13.867l0,0C57.6,35.733,64,42.133,64,49.6v90.667C64,147.733,57.6,154.133,50.133,154.133z"/>
<path style="fill:#40596B;" d="M23.467,143.467L23.467,143.467C16,143.467,9.6,137.067,9.6,129.6V60.267
	C9.6,52.8,16,46.4,23.467,46.4l0,0c7.467,0,13.867,6.4,13.867,13.867v70.4C36.267,137.067,30.933,143.467,23.467,143.467z"/>
<path style="fill:#FFD15C;" d="M308.267,229.867C308.267,258.667,284.8,312,256,312s-52.267-53.333-52.267-82.133
	S227.2,177.6,256,177.6S308.267,201.067,308.267,229.867z"/>
<path style="fill:#40596B;" d="M208,255.467l7.467-21.333c0,0-9.6-37.333,5.333-29.867c0,0,34.133,11.733,71.467-1.067
	c0,0,9.6-2.133,4.267,33.067l8.533,20.267c0,0,1.067-18.133,6.4-26.667c0,0,20.267-49.067-21.333-81.067c0,0-1.067,11.733-16,10.667
	c0,0-36.267-1.067-45.867,5.333c0,0-27.733,5.333-30.933,39.467c0,0-1.067,20.267,7.467,36.267C204.8,238.4,208,251.2,208,255.467z"
	/>
<path style="fill:#FF7058;" d="M333.867,390.933l-19.2,86.4H197.333l-19.2-86.4c22.4-59.733,32-82.133,32-82.133s4.267-2.133,16-3.2
	c0,0,2.133,17.067,7.467,34.133c7.467,22.4,39.467,22.4,46.933,0c6.4-18.133,7.467-35.2,7.467-35.2
	c11.733,2.133,14.933,4.267,14.933,4.267S311.467,331.2,333.867,390.933z"/>
<circle style="fill:#F2F2F2;" cx="234.667" cy="244.8" r="9.6"/>
<circle style="fill:#40596B;" cx="234.667" cy="244.8" r="6.4"/>
<circle style="fill:#FFFFFF;" cx="237.867" cy="240.533" r="2.133"/>
<circle style="fill:#F2F2F2;" cx="278.4" cy="244.8" r="9.6"/>
<circle style="fill:#40596B;" cx="278.4" cy="244.8" r="6.4"/>
<g>
	<circle style="fill:#FFFFFF;" cx="281.6" cy="240.533" r="2.133"/>
	<path style="fill:#FFFFFF;" d="M273.067,278.933c0,0,0,1.067-1.067,1.067c-1.067,1.067-1.067,2.133-3.2,3.2
		c-1.067,1.067-3.2,2.133-5.333,3.2c-2.133,2.133-4.267,2.133-7.467,2.133c-5.333,0-10.667-2.133-12.8-4.267
		c-1.067-1.067-2.133-2.133-3.2-3.2C238.933,280,238.933,280,238.933,280s2.133,1.067,5.333,2.133
		c3.2,1.067,7.467,2.133,11.733,2.133c2.133,0,4.267,0,6.4-1.067c2.133,0,4.267-1.067,5.333-1.067
		c1.067-1.067,3.2-1.067,4.267-1.067C272,278.933,273.067,278.933,273.067,278.933z"/>
</g>
<g>
</g>
<g>
</g>
<g>
</g>
<g>
</g>
<g>
</g>
<g>
</g>
<g>
</g>
<g>
</g>
<g>
</g>
<g>
</g>
<g>
</g>
<g>
</g>
<g>
</g>
<g>
</g>
<g>
</g>
</svg>
