<?xml version="1.0" encoding="iso-8859-1"?>
<!-- Generator: Adobe Illustrator 19.0.0, SVG Export Plug-In . SVG Version: 6.00 Build 0)  -->
<svg version="1.1" id="Capa_1" xmlns="http://www.w3.org/2000/svg" xmlns:xlink="http://www.w3.org/1999/xlink" x="0px" y="0px"
	 viewBox="0 0 512 512" style="enable-background:new 0 0 512 512;" xml:space="preserve">
<g>
	<path style="fill:#5A6B96;" d="M284.316,375.386c-10.49,0-19.024-8.538-19.024-19.034c0-10.49,8.534-19.024,19.024-19.024
		c10.495,0,19.034,8.534,19.034,19.024C303.35,366.848,294.811,375.386,284.316,375.386z"/>
	<path style="fill:#5A6B96;" d="M331.801,327.901c-10.49,0-19.024-8.534-19.024-19.024c0-10.496,8.534-19.034,19.024-19.034
		s19.024,8.538,19.024,19.034C350.825,319.367,342.291,327.901,331.801,327.901z"/>
	<rect x="137.035" y="197.773" style="fill:#5A6B96;" width="220.863" height="46.18"/>
</g>
<rect x="137.035" y="60.235" style="fill:#44C973;" width="220.863" height="141.553"/>
<path style="fill:#FF4F4F;" d="M100.899,503.969c-11.076,0-20.088-9.007-20.088-20.078V28.11c0-11.071,9.012-20.078,20.088-20.078
	h293.145c11.071,0,20.078,9.007,20.078,20.078v409.098c0,36.812-29.949,66.761-66.761,66.761H100.899z M284.316,341.343
	c-8.275,0-15.009,6.733-15.009,15.009c0,8.281,6.733,15.019,15.009,15.019c8.281,0,15.019-6.737,15.019-15.019
	C299.334,348.076,292.597,341.343,284.316,341.343z M331.801,293.858c-8.275,0-15.009,6.737-15.009,15.019
	c0,8.276,6.733,15.009,15.009,15.009s15.009-6.733,15.009-15.009C346.81,300.595,340.076,293.858,331.801,293.858z M353.887,239.937
	V64.251H141.056v175.686H353.887z"/>
<path d="M100.899,512h246.463c41.24,0,74.792-33.551,74.792-74.792V145.569h7.027c5.544,0,10.039-4.495,10.039-10.039
	c0-5.545-4.496-10.039-10.039-10.039h-7.027v-21.082h7.027c5.544,0,10.039-4.495,10.039-10.039c0-5.545-4.496-10.039-10.039-10.039
	h-7.027V28.11c0-15.5-12.61-28.11-28.11-28.11H100.899c-15.505,0-28.12,12.61-28.12,28.11v455.78
	C72.779,499.39,85.395,512,100.899,512z M92.858,28.11c0-4.428,3.607-8.031,8.041-8.031h293.145c4.428,0,8.031,3.603,8.031,8.031
	v409.098c0,30.169-24.544,54.714-54.714,54.714H100.899c-4.434,0-8.041-3.603-8.041-8.031V28.11z"/>
<path d="M139.048,251.984h216.847c5.544,0,10.039-4.495,10.039-10.039V62.243c0-5.545-4.496-10.039-10.039-10.039H139.048
	c-5.544,0-10.039,4.495-10.039,10.039v179.702C129.009,247.49,133.503,251.984,139.048,251.984z M149.087,231.906V209.82h196.769
	v22.086H149.087z M345.856,72.282v117.459H149.087V72.282H345.856z"/>
<path d="M139.048,341.504h23.502v23.502c0,5.545,4.496,10.039,10.039,10.039s10.039-4.495,10.039-10.039v-23.502h23.512
	c5.544,0,10.039-4.495,10.039-10.039s-4.496-10.039-10.039-10.039h-23.512v-23.512c0-5.545-4.496-10.039-10.039-10.039
	s-10.039,4.495-10.039,10.039v23.512h-23.502c-5.544,0-10.039,4.495-10.039,10.039S133.503,341.504,139.048,341.504z"/>
<path d="M225.314,424.086l-20.831,20.831c-3.92,3.92-3.92,10.277,0,14.198c1.961,1.96,4.53,2.94,7.099,2.94
	c2.569,0,5.138-0.981,7.099-2.94l20.831-20.831c3.92-3.92,3.92-10.277,0-14.198C235.59,420.165,229.235,420.165,225.314,424.086z"/>
<path d="M291.071,424.086l-20.831,20.831c-3.92,3.92-3.92,10.277,0,14.198c1.961,1.96,4.53,2.94,7.099,2.94s5.138-0.981,7.099-2.94
	l20.831-20.831c3.92-3.92,3.92-10.277,0-14.198C301.347,420.165,294.992,420.165,291.071,424.086z"/>
<path d="M331.801,281.811c-14.918,0-27.056,12.141-27.056,27.066c0,14.918,12.137,27.056,27.056,27.056s27.056-12.137,27.056-27.056
	C358.857,293.952,346.719,281.811,331.801,281.811z M331.801,315.854c-3.847,0-6.977-3.13-6.977-6.977
	c0-3.853,3.13-6.987,6.977-6.987s6.977,3.134,6.977,6.987C338.778,312.724,335.648,315.854,331.801,315.854z"/>
<path d="M284.316,329.296c-14.918,0-27.056,12.137-27.056,27.056c0,14.924,12.137,27.066,27.056,27.066
	c14.924,0,27.066-12.141,27.066-27.066C311.381,341.434,299.24,329.296,284.316,329.296z M284.316,363.339
	c-3.847,0-6.977-3.134-6.977-6.987c0-3.848,3.13-6.977,6.977-6.977c3.853,0,6.987,3.13,6.987,6.977
	C291.303,360.205,288.169,363.339,284.316,363.339z"/>
<path d="M192.481,103.906h90.347c5.544,0,10.039-4.495,10.039-10.039c0-5.545-4.496-10.039-10.039-10.039h-90.347
	c-5.544,0-10.039,4.495-10.039,10.039C182.442,99.411,186.936,103.906,192.481,103.906z"/>
<path d="M314.785,103.906c12.919,0,12.941-20.078,0-20.078C301.865,83.827,301.844,103.906,314.785,103.906z"/>
<g>
</g>
<g>
</g>
<g>
</g>
<g>
</g>
<g>
</g>
<g>
</g>
<g>
</g>
<g>
</g>
<g>
</g>
<g>
</g>
<g>
</g>
<g>
</g>
<g>
</g>
<g>
</g>
<g>
</g>
</svg>
