<svg width="320" height="320" xmlns="http://www.w3.org/2000/svg" preserveAspectRatio="xMidYMid meet">

 <g>
  <title>background</title>
  <rect fill="none" id="canvas_background" height="402" width="582" y="-1" x="-1"/>
 </g>
 <g>
  <title>Layer 1</title>
  <rect id="svg_4" height="187" width="120" y="63.453125" x="102.5" stroke-width="1.5" stroke="#000" fill="#fff"/>
  <g id="svg_1" fill="#D0021B" transform="translate(0,320) scale(0.10000000149011612,-0.10000000149011612) ">
   <path id="svg_2" d="m1169,2916c-53,-19 -102,-60 -175,-147c-97,-116 -153,-163 -242,-199c-198,-81 -254,-117 -289,-184c-25,-49 -32,-84 -43,-217c-13,-161 -24,-196 -99,-317c-140,-228 -140,-286 1,-506c69,-107 85,-161 98,-313c20,-249 48,-288 279,-382c158,-65 165,-71 333,-263c70,-80 138,-118 212,-118c28,0 107,14 176,30c69,16 152,30 185,30c33,0 116,-14 185,-30c213,-51 269,-39 379,82c161,175 203,212 276,242c164,67 226,100 265,142c49,54 66,111 79,274c5,69 16,144 24,167c8,23 47,96 87,162c123,203 123,258 -1,463c-39,64 -77,136 -86,160c-8,23 -19,99 -24,168c-20,251 -54,299 -275,386c-148,58 -186,87 -305,230c-90,109 -165,154 -253,154c-23,0 -97,-13 -164,-30c-75,-18 -150,-30 -190,-30c-42,0 -113,12 -187,30c-129,32 -190,36 -246,16zm548,-560c37,-44 46,-95 29,-176c-40,-189 -155,-290 -266,-233c-44,23 -42,35 7,49c132,39 201,117 211,240c4,57 2,65 -21,88c-51,51 -119,27 -214,-77c-51,-55 -84,-119 -122,-235c-75,-224 -56,-433 45,-521c74,-66 176,-62 258,10c72,63 86,95 101,222c18,155 25,202 35,216c9,15 83,31 98,22c6,-4 1,-33 -14,-76c-33,-98 -31,-119 6,-63c54,81 129,100 167,41c24,-37 24,-176 0,-254c-42,-140 -151,-230 -227,-189c-23,12 -20,22 -50,-165c-21,-133 -72,-374 -91,-433c-6,-17 -19,-37 -29,-42c-22,-12 -77,-13 -84,-2c-2,4 11,53 29,108c19,55 46,147 60,204c27,106 75,373 75,416c0,23 -2,22 -41,-17c-23,-23 -66,-52 -96,-66c-47,-22 -65,-25 -123,-21c-240,18 -336,287 -216,608c67,180 200,327 336,371c47,15 112,3 137,-25z"/>
   <path id="svg_3" d="m1915,1814c-14,-15 -42,-61 -62,-101c-30,-60 -37,-88 -41,-151c-4,-65 -1,-81 15,-101c17,-21 22,-22 41,-10c55,34 105,190 100,312c-3,81 -15,92 -53,51z"/>
  </g>
 </g>
</svg>