<?xml version="1.0"?>
<svg xmlns="http://www.w3.org/2000/svg" height="512px" viewBox="0 0 512 512" width="512px" class="hovered-paths"><g><path d="m64 0h384c35.347656 0 64 28.652344 64 64v384c0 35.347656-28.652344 64-64 64h-384c-35.347656 0-64-28.652344-64-64v-384c0-35.347656 28.652344-64 64-64zm0 0" fill="#a8918c" data-original="#A8918C" class="" style="fill:#383435" data-old_color="#a8918c"/><path d="m400 160v-32h-74.304688l-69.695312 153.328125-69.695312-153.328125h-74.304688v32h32v192h-32v32h64v-201.34375l80 176.015625 80-176.015625v201.34375h64v-32h-32v-192zm0 0" fill="#fff" data-original="#FFF" class="active-path" style="fill:#FFFFFF" data-old_color="#fff"/></g> </svg>
